<svg xmlns="http://www.w3.org/2000/svg" xmlns:xlink="http://www.w3.org/1999/xlink" width="2581.998" height="178.355" viewBox="0 0 2581.998 178.355"><defs><filter id="a" x="0" y="0" width="143.189" height="178.355" filterUnits="userSpaceOnUse"><feOffset dy="17" input="SourceAlpha"/><feGaussianBlur stdDeviation="8" result="b"/><feFlood flood-opacity="0.38"/><feComposite operator="in" in2="b"/><feComposite in="SourceGraphic"/></filter><filter id="c" x="379.153" y="0" width="143.189" height="178.355" filterUnits="userSpaceOnUse"><feOffset dy="17" input="SourceAlpha"/><feGaussianBlur stdDeviation="8" result="d"/><feFlood flood-opacity="0.38"/><feComposite operator="in" in2="d"/><feComposite in="SourceGraphic"/></filter><filter id="e" x="1134.641" y="0" width="143.189" height="178.355" filterUnits="userSpaceOnUse"><feOffset dy="17" input="SourceAlpha"/><feGaussianBlur stdDeviation="8" result="f"/><feFlood flood-opacity="0.38"/><feComposite operator="in" in2="f"/><feComposite in="SourceGraphic"/></filter><filter id="g" x="1511.134" y="0" width="143.189" height="178.355" filterUnits="userSpaceOnUse"><feOffset dy="17" input="SourceAlpha"/><feGaussianBlur stdDeviation="8" result="h"/><feFlood flood-opacity="0.38"/><feComposite operator="in" in2="h"/><feComposite in="SourceGraphic"/></filter><filter id="i" x="760.08" y="0" width="143.189" height="178.355" filterUnits="userSpaceOnUse"><feOffset dy="17" input="SourceAlpha"/><feGaussianBlur stdDeviation="8" result="j"/><feFlood flood-opacity="0.38"/><feComposite operator="in" in2="j"/><feComposite in="SourceGraphic"/></filter><filter id="k" x="95.362" y="0" width="143.189" height="178.355" filterUnits="userSpaceOnUse"><feOffset dy="17" input="SourceAlpha"/><feGaussianBlur stdDeviation="8" result="l"/><feFlood flood-opacity="0.38"/><feComposite operator="in" in2="l"/><feComposite in="SourceGraphic"/></filter><filter id="m" x="474.515" y="0" width="143.189" height="178.355" filterUnits="userSpaceOnUse"><feOffset dy="17" input="SourceAlpha"/><feGaussianBlur stdDeviation="8" result="n"/><feFlood flood-opacity="0.38"/><feComposite operator="in" in2="n"/><feComposite in="SourceGraphic"/></filter><filter id="o" x="1230.004" y="0" width="143.189" height="178.355" filterUnits="userSpaceOnUse"><feOffset dy="17" input="SourceAlpha"/><feGaussianBlur stdDeviation="8" result="p"/><feFlood flood-opacity="0.38"/><feComposite operator="in" in2="p"/><feComposite in="SourceGraphic"/></filter><filter id="q" x="1606.496" y="0" width="143.189" height="178.355" filterUnits="userSpaceOnUse"><feOffset dy="17" input="SourceAlpha"/><feGaussianBlur stdDeviation="8" result="r"/><feFlood flood-opacity="0.38"/><feComposite operator="in" in2="r"/><feComposite in="SourceGraphic"/></filter><filter id="s" x="855.442" y="0" width="143.189" height="178.355" filterUnits="userSpaceOnUse"><feOffset dy="17" input="SourceAlpha"/><feGaussianBlur stdDeviation="8" result="t"/><feFlood flood-opacity="0.38"/><feComposite operator="in" in2="t"/><feComposite in="SourceGraphic"/></filter><filter id="u" x="188.429" y="0" width="143.189" height="178.355" filterUnits="userSpaceOnUse"><feOffset dy="17" input="SourceAlpha"/><feGaussianBlur stdDeviation="8" result="v"/><feFlood flood-opacity="0.38"/><feComposite operator="in" in2="v"/><feComposite in="SourceGraphic"/></filter><filter id="w" x="569.877" y="0" width="143.189" height="178.355" filterUnits="userSpaceOnUse"><feOffset dy="17" input="SourceAlpha"/><feGaussianBlur stdDeviation="8" result="x"/><feFlood flood-opacity="0.38"/><feComposite operator="in" in2="x"/><feComposite in="SourceGraphic"/></filter><filter id="y" x="950.804" y="0" width="143.189" height="178.355" filterUnits="userSpaceOnUse"><feOffset dy="17" input="SourceAlpha"/><feGaussianBlur stdDeviation="8" result="z"/><feFlood flood-opacity="0.38"/><feComposite operator="in" in2="z"/><feComposite in="SourceGraphic"/></filter><filter id="aa" x="283.791" y="0" width="143.189" height="178.355" filterUnits="userSpaceOnUse"><feOffset dy="17" input="SourceAlpha"/><feGaussianBlur stdDeviation="8" result="ab"/><feFlood flood-opacity="0.38"/><feComposite operator="in" in2="ab"/><feComposite in="SourceGraphic"/></filter><filter id="ac" x="665.239" y="0" width="143.189" height="178.355" filterUnits="userSpaceOnUse"><feOffset dy="17" input="SourceAlpha"/><feGaussianBlur stdDeviation="8" result="ad"/><feFlood flood-opacity="0.38"/><feComposite operator="in" in2="ad"/><feComposite in="SourceGraphic"/></filter><filter id="ae" x="1039.279" y="0" width="143.189" height="178.355" filterUnits="userSpaceOnUse"><feOffset dy="17" input="SourceAlpha"/><feGaussianBlur stdDeviation="8" result="af"/><feFlood flood-opacity="0.38"/><feComposite operator="in" in2="af"/><feComposite in="SourceGraphic"/></filter><filter id="ag" x="1325.366" y="0" width="143.189" height="178.355" filterUnits="userSpaceOnUse"><feOffset dy="17" input="SourceAlpha"/><feGaussianBlur stdDeviation="8" result="ah"/><feFlood flood-opacity="0.38"/><feComposite operator="in" in2="ah"/><feComposite in="SourceGraphic"/></filter><filter id="ai" x="1701.858" y="0" width="143.189" height="178.355" filterUnits="userSpaceOnUse"><feOffset dy="17" input="SourceAlpha"/><feGaussianBlur stdDeviation="8" result="aj"/><feFlood flood-opacity="0.38"/><feComposite operator="in" in2="aj"/><feComposite in="SourceGraphic"/></filter><filter id="ak" x="1887.809" y="0" width="143.189" height="178.355" filterUnits="userSpaceOnUse"><feOffset dy="17" input="SourceAlpha"/><feGaussianBlur stdDeviation="8" result="al"/><feFlood flood-opacity="0.38"/><feComposite operator="in" in2="al"/><feComposite in="SourceGraphic"/></filter><filter id="am" x="2070.809" y="0" width="143.189" height="178.355" filterUnits="userSpaceOnUse"><feOffset dy="17" input="SourceAlpha"/><feGaussianBlur stdDeviation="8" result="an"/><feFlood flood-opacity="0.38"/><feComposite operator="in" in2="an"/><feComposite in="SourceGraphic"/></filter><filter id="ao" x="2256.809" y="0" width="143.189" height="178.355" filterUnits="userSpaceOnUse"><feOffset dy="17" input="SourceAlpha"/><feGaussianBlur stdDeviation="8" result="ap"/><feFlood flood-opacity="0.38"/><feComposite operator="in" in2="ap"/><feComposite in="SourceGraphic"/></filter><filter id="aq" x="2438.809" y="0" width="143.189" height="178.355" filterUnits="userSpaceOnUse"><feOffset dy="17" input="SourceAlpha"/><feGaussianBlur stdDeviation="8" result="ar"/><feFlood flood-opacity="0.38"/><feComposite operator="in" in2="ar"/><feComposite in="SourceGraphic"/></filter><filter id="as" x="1420.728" y="0" width="143.189" height="178.355" filterUnits="userSpaceOnUse"><feOffset dy="17" input="SourceAlpha"/><feGaussianBlur stdDeviation="8" result="at"/><feFlood flood-opacity="0.38"/><feComposite operator="in" in2="at"/><feComposite in="SourceGraphic"/></filter><filter id="au" x="1797.22" y="0" width="143.189" height="178.355" filterUnits="userSpaceOnUse"><feOffset dy="17" input="SourceAlpha"/><feGaussianBlur stdDeviation="8" result="av"/><feFlood flood-opacity="0.38"/><feComposite operator="in" in2="av"/><feComposite in="SourceGraphic"/></filter><filter id="aw" x="1980.22" y="0" width="143.189" height="178.355" filterUnits="userSpaceOnUse"><feOffset dy="17" input="SourceAlpha"/><feGaussianBlur stdDeviation="8" result="ax"/><feFlood flood-opacity="0.38"/><feComposite operator="in" in2="ax"/><feComposite in="SourceGraphic"/></filter><filter id="ay" x="2166.22" y="0" width="143.189" height="178.355" filterUnits="userSpaceOnUse"><feOffset dy="17" input="SourceAlpha"/><feGaussianBlur stdDeviation="8" result="az"/><feFlood flood-opacity="0.38"/><feComposite operator="in" in2="az"/><feComposite in="SourceGraphic"/></filter><filter id="ba" x="2348.22" y="0" width="143.189" height="178.355" filterUnits="userSpaceOnUse"><feOffset dy="17" input="SourceAlpha"/><feGaussianBlur stdDeviation="8" result="bb"/><feFlood flood-opacity="0.38"/><feComposite operator="in" in2="bb"/><feComposite in="SourceGraphic"/></filter></defs><g transform="translate(24 7)"><g transform="matrix(1, 0, 0, 1, -24, -7)" filter="url(#a)"><path d="M0,0H95.189V114.183s-23.783,16.172-47.58,16.172S0,114.183,0,114.183Z" transform="translate(24 7)" fill="#ec1b5b"/></g><g transform="matrix(1, 0, 0, 1, -24, -7)" filter="url(#c)"><path d="M0,0H95.189V114.183s-23.783,16.172-47.58,16.172S0,114.183,0,114.183Z" transform="translate(403.15 7)" fill="#ec1b5b"/></g><g transform="matrix(1, 0, 0, 1, -24, -7)" filter="url(#e)"><path d="M0,0H95.189V114.183s-23.783,16.172-47.58,16.172S0,114.183,0,114.183Z" transform="translate(1158.64 7)" fill="#ec1b5b"/></g><g transform="matrix(1, 0, 0, 1, -24, -7)" filter="url(#g)"><path d="M0,0H95.189V114.183s-23.783,16.172-47.58,16.172S0,114.183,0,114.183Z" transform="translate(1535.13 7)" fill="#ec1b5b"/></g><g transform="matrix(1, 0, 0, 1, -24, -7)" filter="url(#i)"><path d="M0,0H95.189V114.183s-23.783,16.172-47.58,16.172S0,114.183,0,114.183Z" transform="translate(784.08 7)" fill="#ec1b5b"/></g><g transform="matrix(1, 0, 0, 1, -24, -7)" filter="url(#k)"><path d="M0,0H95.189V114.183s-23.783,16.172-47.58,16.172S0,114.183,0,114.183Z" transform="translate(119.36 7)" fill="#603813"/></g><g transform="matrix(1, 0, 0, 1, -24, -7)" filter="url(#m)"><path d="M0,0H95.189V114.183s-23.783,16.172-47.58,16.172S0,114.183,0,114.183Z" transform="translate(498.51 7)" fill="#603813"/></g><g transform="matrix(1, 0, 0, 1, -24, -7)" filter="url(#o)"><path d="M0,0H95.189V114.183s-23.783,16.172-47.58,16.172S0,114.183,0,114.183Z" transform="translate(1254 7)" fill="#603813"/></g><g transform="matrix(1, 0, 0, 1, -24, -7)" filter="url(#q)"><path d="M0,0H95.189V114.183s-23.783,16.172-47.58,16.172S0,114.183,0,114.183Z" transform="translate(1630.5 7)" fill="#603813"/></g><g transform="matrix(1, 0, 0, 1, -24, -7)" filter="url(#s)"><path d="M0,0H95.189V114.183s-23.783,16.172-47.58,16.172S0,114.183,0,114.183Z" transform="translate(879.44 7)" fill="#603813"/></g><g transform="matrix(1, 0, 0, 1, -24, -7)" filter="url(#u)"><path d="M0,0H95.189V114.183s-23.783,16.172-47.58,16.172S0,114.183,0,114.183Z" transform="translate(212.43 7)" fill="#ec1b5b"/></g><g transform="matrix(1, 0, 0, 1, -24, -7)" filter="url(#w)"><path d="M0,0H95.189V114.183s-23.783,16.172-47.58,16.172S0,114.183,0,114.183Z" transform="translate(593.88 7)" fill="#ec1b5b"/></g><g transform="matrix(1, 0, 0, 1, -24, -7)" filter="url(#y)"><path d="M0,0H95.189V114.183s-23.783,16.172-47.58,16.172S0,114.183,0,114.183Z" transform="translate(974.8 7)" fill="#ec1b5b"/></g><g transform="matrix(1, 0, 0, 1, -24, -7)" filter="url(#aa)"><path d="M0,0H95.189V114.183s-23.783,16.172-47.58,16.172S0,114.183,0,114.183Z" transform="translate(307.79 7)" fill="#603813"/></g><g transform="matrix(1, 0, 0, 1, -24, -7)" filter="url(#ac)"><path d="M0,0H95.189V114.183s-23.783,16.172-47.58,16.172S0,114.183,0,114.183Z" transform="translate(689.24 7)" fill="#603813"/></g><g transform="matrix(1, 0, 0, 1, -24, -7)" filter="url(#ae)"><path d="M0,0H95.189V114.183s-23.783,16.172-47.58,16.172S0,114.183,0,114.183Z" transform="translate(1063.28 7)" fill="#603813"/></g><g transform="matrix(1, 0, 0, 1, -24, -7)" filter="url(#ag)"><path d="M0,0H95.189V114.183s-23.783,16.172-47.58,16.172S0,114.183,0,114.183Z" transform="translate(1349.37 7)" fill="#ec1b5b"/></g><g transform="matrix(1, 0, 0, 1, -24, -7)" filter="url(#ai)"><path d="M0,0H95.189V114.183s-23.783,16.172-47.58,16.172S0,114.183,0,114.183Z" transform="translate(1725.86 7)" fill="#ec1b5b"/></g><g transform="matrix(1, 0, 0, 1, -24, -7)" filter="url(#ak)"><path d="M0,0H95.189V114.183s-23.783,16.172-47.58,16.172S0,114.183,0,114.183Z" transform="translate(1911.81 7)" fill="#ec1b5b"/></g><g transform="matrix(1, 0, 0, 1, -24, -7)" filter="url(#am)"><path d="M0,0H95.189V114.183s-23.783,16.172-47.58,16.172S0,114.183,0,114.183Z" transform="translate(2094.81 7)" fill="#ec1b5b"/></g><g transform="matrix(1, 0, 0, 1, -24, -7)" filter="url(#ao)"><path d="M0,0H95.189V114.183s-23.783,16.172-47.58,16.172S0,114.183,0,114.183Z" transform="translate(2280.81 7)" fill="#ec1b5b"/></g><g transform="matrix(1, 0, 0, 1, -24, -7)" filter="url(#aq)"><path d="M0,0H95.189V114.183s-23.783,16.172-47.58,16.172S0,114.183,0,114.183Z" transform="translate(2462.81 7)" fill="#ec1b5b"/></g><g transform="matrix(1, 0, 0, 1, -24, -7)" filter="url(#as)"><path d="M0,0H95.189V114.183s-23.783,16.172-47.58,16.172S0,114.183,0,114.183Z" transform="translate(1444.73 7)" fill="#603813"/></g><g transform="matrix(1, 0, 0, 1, -24, -7)" filter="url(#au)"><path d="M0,0H95.189V114.183s-23.783,16.172-47.58,16.172S0,114.183,0,114.183Z" transform="translate(1821.22 7)" fill="#603813"/></g><g transform="matrix(1, 0, 0, 1, -24, -7)" filter="url(#aw)"><path d="M0,0H95.189V114.183s-23.783,16.172-47.58,16.172S0,114.183,0,114.183Z" transform="translate(2004.22 7)" fill="#603813"/></g><g transform="matrix(1, 0, 0, 1, -24, -7)" filter="url(#ay)"><path d="M0,0H95.189V114.183s-23.783,16.172-47.58,16.172S0,114.183,0,114.183Z" transform="translate(2190.22 7)" fill="#603813"/></g><g transform="matrix(1, 0, 0, 1, -24, -7)" filter="url(#ba)"><path d="M0,0H95.189V114.183s-23.783,16.172-47.58,16.172S0,114.183,0,114.183Z" transform="translate(2372.22 7)" fill="#603813"/></g></g></svg>