<svg xmlns="http://www.w3.org/2000/svg" xmlns:xlink="http://www.w3.org/1999/xlink" width="6050.771" height="178.355" viewBox="0 0 6050.771 178.355">
  <defs>
    <filter id="Path_29" x="0" y="0" width="143.189" height="178.355" filterUnits="userSpaceOnUse">
      <feOffset dy="17" input="SourceAlpha"/>
      <feGaussianBlur stdDeviation="8" result="blur"/>
      <feFlood flood-opacity="0.38"/>
      <feComposite operator="in" in2="blur"/>
      <feComposite in="SourceGraphic"/>
    </filter>
    <filter id="Path_36" x="379.153" y="0" width="143.189" height="178.355" filterUnits="userSpaceOnUse">
      <feOffset dy="17" input="SourceAlpha"/>
      <feGaussianBlur stdDeviation="8" result="blur-2"/>
      <feFlood flood-opacity="0.38"/>
      <feComposite operator="in" in2="blur-2"/>
      <feComposite in="SourceGraphic"/>
    </filter>
    <filter id="Path_40" x="1134.641" y="0" width="143.189" height="178.355" filterUnits="userSpaceOnUse">
      <feOffset dy="17" input="SourceAlpha"/>
      <feGaussianBlur stdDeviation="8" result="blur-3"/>
      <feFlood flood-opacity="0.38"/>
      <feComposite operator="in" in2="blur-3"/>
      <feComposite in="SourceGraphic"/>
    </filter>
    <filter id="Path_45" x="1511.134" y="0" width="143.189" height="178.355" filterUnits="userSpaceOnUse">
      <feOffset dy="17" input="SourceAlpha"/>
      <feGaussianBlur stdDeviation="8" result="blur-4"/>
      <feFlood flood-opacity="0.38"/>
      <feComposite operator="in" in2="blur-4"/>
      <feComposite in="SourceGraphic"/>
    </filter>
    <filter id="Path_44" x="760.08" y="0" width="143.189" height="178.355" filterUnits="userSpaceOnUse">
      <feOffset dy="17" input="SourceAlpha"/>
      <feGaussianBlur stdDeviation="8" result="blur-5"/>
      <feFlood flood-opacity="0.38"/>
      <feComposite operator="in" in2="blur-5"/>
      <feComposite in="SourceGraphic"/>
    </filter>
    <filter id="Path_30" x="95.362" y="0" width="143.189" height="178.355" filterUnits="userSpaceOnUse">
      <feOffset dy="17" input="SourceAlpha"/>
      <feGaussianBlur stdDeviation="8" result="blur-6"/>
      <feFlood flood-opacity="0.38"/>
      <feComposite operator="in" in2="blur-6"/>
      <feComposite in="SourceGraphic"/>
    </filter>
    <filter id="Path_35" x="474.515" y="0" width="143.189" height="178.355" filterUnits="userSpaceOnUse">
      <feOffset dy="17" input="SourceAlpha"/>
      <feGaussianBlur stdDeviation="8" result="blur-7"/>
      <feFlood flood-opacity="0.38"/>
      <feComposite operator="in" in2="blur-7"/>
      <feComposite in="SourceGraphic"/>
    </filter>
    <filter id="Path_39" x="1230.004" y="0" width="143.189" height="178.355" filterUnits="userSpaceOnUse">
      <feOffset dy="17" input="SourceAlpha"/>
      <feGaussianBlur stdDeviation="8" result="blur-8"/>
      <feFlood flood-opacity="0.38"/>
      <feComposite operator="in" in2="blur-8"/>
      <feComposite in="SourceGraphic"/>
    </filter>
    <filter id="Path_46" x="1606.496" y="0" width="143.189" height="178.355" filterUnits="userSpaceOnUse">
      <feOffset dy="17" input="SourceAlpha"/>
      <feGaussianBlur stdDeviation="8" result="blur-9"/>
      <feFlood flood-opacity="0.38"/>
      <feComposite operator="in" in2="blur-9"/>
      <feComposite in="SourceGraphic"/>
    </filter>
    <filter id="Path_43" x="855.442" y="0" width="143.189" height="178.355" filterUnits="userSpaceOnUse">
      <feOffset dy="17" input="SourceAlpha"/>
      <feGaussianBlur stdDeviation="8" result="blur-10"/>
      <feFlood flood-opacity="0.38"/>
      <feComposite operator="in" in2="blur-10"/>
      <feComposite in="SourceGraphic"/>
    </filter>
    <filter id="Path_31" x="188.429" y="0" width="143.189" height="178.355" filterUnits="userSpaceOnUse">
      <feOffset dy="17" input="SourceAlpha"/>
      <feGaussianBlur stdDeviation="8" result="blur-11"/>
      <feFlood flood-opacity="0.38"/>
      <feComposite operator="in" in2="blur-11"/>
      <feComposite in="SourceGraphic"/>
    </filter>
    <filter id="Path_34" x="569.877" y="0" width="143.189" height="178.355" filterUnits="userSpaceOnUse">
      <feOffset dy="17" input="SourceAlpha"/>
      <feGaussianBlur stdDeviation="8" result="blur-12"/>
      <feFlood flood-opacity="0.38"/>
      <feComposite operator="in" in2="blur-12"/>
      <feComposite in="SourceGraphic"/>
    </filter>
    <filter id="Path_42" x="950.804" y="0" width="143.189" height="178.355" filterUnits="userSpaceOnUse">
      <feOffset dy="17" input="SourceAlpha"/>
      <feGaussianBlur stdDeviation="8" result="blur-13"/>
      <feFlood flood-opacity="0.38"/>
      <feComposite operator="in" in2="blur-13"/>
      <feComposite in="SourceGraphic"/>
    </filter>
    <filter id="Path_32" x="283.791" y="0" width="143.189" height="178.355" filterUnits="userSpaceOnUse">
      <feOffset dy="17" input="SourceAlpha"/>
      <feGaussianBlur stdDeviation="8" result="blur-14"/>
      <feFlood flood-opacity="0.38"/>
      <feComposite operator="in" in2="blur-14"/>
      <feComposite in="SourceGraphic"/>
    </filter>
    <filter id="Path_33" x="665.239" y="0" width="143.189" height="178.355" filterUnits="userSpaceOnUse">
      <feOffset dy="17" input="SourceAlpha"/>
      <feGaussianBlur stdDeviation="8" result="blur-15"/>
      <feFlood flood-opacity="0.38"/>
      <feComposite operator="in" in2="blur-15"/>
      <feComposite in="SourceGraphic"/>
    </filter>
    <filter id="Path_41" x="1039.279" y="0" width="143.189" height="178.355" filterUnits="userSpaceOnUse">
      <feOffset dy="17" input="SourceAlpha"/>
      <feGaussianBlur stdDeviation="8" result="blur-16"/>
      <feFlood flood-opacity="0.38"/>
      <feComposite operator="in" in2="blur-16"/>
      <feComposite in="SourceGraphic"/>
    </filter>
    <filter id="Path_38" x="1325.366" y="0" width="143.189" height="178.355" filterUnits="userSpaceOnUse">
      <feOffset dy="17" input="SourceAlpha"/>
      <feGaussianBlur stdDeviation="8" result="blur-17"/>
      <feFlood flood-opacity="0.38"/>
      <feComposite operator="in" in2="blur-17"/>
      <feComposite in="SourceGraphic"/>
    </filter>
    <filter id="Path_47" x="1701.858" y="0" width="143.189" height="178.355" filterUnits="userSpaceOnUse">
      <feOffset dy="17" input="SourceAlpha"/>
      <feGaussianBlur stdDeviation="8" result="blur-18"/>
      <feFlood flood-opacity="0.38"/>
      <feComposite operator="in" in2="blur-18"/>
      <feComposite in="SourceGraphic"/>
    </filter>
    <filter id="Path_49" x="1887.809" y="0" width="143.189" height="178.355" filterUnits="userSpaceOnUse">
      <feOffset dy="17" input="SourceAlpha"/>
      <feGaussianBlur stdDeviation="8" result="blur-19"/>
      <feFlood flood-opacity="0.38"/>
      <feComposite operator="in" in2="blur-19"/>
      <feComposite in="SourceGraphic"/>
    </filter>
    <filter id="Path_51" x="2070.809" y="0" width="143.189" height="178.355" filterUnits="userSpaceOnUse">
      <feOffset dy="17" input="SourceAlpha"/>
      <feGaussianBlur stdDeviation="8" result="blur-20"/>
      <feFlood flood-opacity="0.38"/>
      <feComposite operator="in" in2="blur-20"/>
      <feComposite in="SourceGraphic"/>
    </filter>
    <filter id="Path_52" x="2256.809" y="0" width="143.189" height="178.355" filterUnits="userSpaceOnUse">
      <feOffset dy="17" input="SourceAlpha"/>
      <feGaussianBlur stdDeviation="8" result="blur-21"/>
      <feFlood flood-opacity="0.38"/>
      <feComposite operator="in" in2="blur-21"/>
      <feComposite in="SourceGraphic"/>
    </filter>
    <filter id="Path_54" x="2438.809" y="0" width="143.189" height="178.355" filterUnits="userSpaceOnUse">
      <feOffset dy="17" input="SourceAlpha"/>
      <feGaussianBlur stdDeviation="8" result="blur-22"/>
      <feFlood flood-opacity="0.38"/>
      <feComposite operator="in" in2="blur-22"/>
      <feComposite in="SourceGraphic"/>
    </filter>
    <filter id="Path_57" x="2624.809" y="0" width="143.189" height="178.355" filterUnits="userSpaceOnUse">
      <feOffset dy="17" input="SourceAlpha"/>
      <feGaussianBlur stdDeviation="8" result="blur-23"/>
      <feFlood flood-opacity="0.38"/>
      <feComposite operator="in" in2="blur-23"/>
      <feComposite in="SourceGraphic"/>
    </filter>
    <filter id="Path_59" x="2810.809" y="0" width="143.189" height="178.355" filterUnits="userSpaceOnUse">
      <feOffset dy="17" input="SourceAlpha"/>
      <feGaussianBlur stdDeviation="8" result="blur-24"/>
      <feFlood flood-opacity="0.38"/>
      <feComposite operator="in" in2="blur-24"/>
      <feComposite in="SourceGraphic"/>
    </filter>
    <filter id="Path_37" x="1420.728" y="0" width="143.189" height="178.355" filterUnits="userSpaceOnUse">
      <feOffset dy="17" input="SourceAlpha"/>
      <feGaussianBlur stdDeviation="8" result="blur-25"/>
      <feFlood flood-opacity="0.38"/>
      <feComposite operator="in" in2="blur-25"/>
      <feComposite in="SourceGraphic"/>
    </filter>
    <filter id="Path_48" x="1797.22" y="0" width="143.189" height="178.355" filterUnits="userSpaceOnUse">
      <feOffset dy="17" input="SourceAlpha"/>
      <feGaussianBlur stdDeviation="8" result="blur-26"/>
      <feFlood flood-opacity="0.38"/>
      <feComposite operator="in" in2="blur-26"/>
      <feComposite in="SourceGraphic"/>
    </filter>
    <filter id="Path_50" x="1980.22" y="0" width="143.189" height="178.355" filterUnits="userSpaceOnUse">
      <feOffset dy="17" input="SourceAlpha"/>
      <feGaussianBlur stdDeviation="8" result="blur-27"/>
      <feFlood flood-opacity="0.38"/>
      <feComposite operator="in" in2="blur-27"/>
      <feComposite in="SourceGraphic"/>
    </filter>
    <filter id="Path_53" x="2166.22" y="0" width="143.189" height="178.355" filterUnits="userSpaceOnUse">
      <feOffset dy="17" input="SourceAlpha"/>
      <feGaussianBlur stdDeviation="8" result="blur-28"/>
      <feFlood flood-opacity="0.38"/>
      <feComposite operator="in" in2="blur-28"/>
      <feComposite in="SourceGraphic"/>
    </filter>
    <filter id="Path_55" x="2348.22" y="0" width="143.189" height="178.355" filterUnits="userSpaceOnUse">
      <feOffset dy="17" input="SourceAlpha"/>
      <feGaussianBlur stdDeviation="8" result="blur-29"/>
      <feFlood flood-opacity="0.38"/>
      <feComposite operator="in" in2="blur-29"/>
      <feComposite in="SourceGraphic"/>
    </filter>
    <filter id="Path_56" x="2534.22" y="0" width="143.189" height="178.355" filterUnits="userSpaceOnUse">
      <feOffset dy="17" input="SourceAlpha"/>
      <feGaussianBlur stdDeviation="8" result="blur-30"/>
      <feFlood flood-opacity="0.38"/>
      <feComposite operator="in" in2="blur-30"/>
      <feComposite in="SourceGraphic"/>
    </filter>
    <filter id="Path_58" x="2720.22" y="0" width="143.189" height="178.355" filterUnits="userSpaceOnUse">
      <feOffset dy="17" input="SourceAlpha"/>
      <feGaussianBlur stdDeviation="8" result="blur-31"/>
      <feFlood flood-opacity="0.38"/>
      <feComposite operator="in" in2="blur-31"/>
      <feComposite in="SourceGraphic"/>
    </filter>
    <filter id="Path_29-2" x="3001.362" y="0" width="143.189" height="178.355" filterUnits="userSpaceOnUse">
      <feOffset dy="17" input="SourceAlpha"/>
      <feGaussianBlur stdDeviation="8" result="blur-32"/>
      <feFlood flood-opacity="0.38"/>
      <feComposite operator="in" in2="blur-32"/>
      <feComposite in="SourceGraphic"/>
    </filter>
    <filter id="Path_36-2" x="3380.515" y="0" width="143.189" height="178.355" filterUnits="userSpaceOnUse">
      <feOffset dy="17" input="SourceAlpha"/>
      <feGaussianBlur stdDeviation="8" result="blur-33"/>
      <feFlood flood-opacity="0.38"/>
      <feComposite operator="in" in2="blur-33"/>
      <feComposite in="SourceGraphic"/>
    </filter>
    <filter id="Path_40-2" x="4136.003" y="0" width="143.189" height="178.355" filterUnits="userSpaceOnUse">
      <feOffset dy="17" input="SourceAlpha"/>
      <feGaussianBlur stdDeviation="8" result="blur-34"/>
      <feFlood flood-opacity="0.38"/>
      <feComposite operator="in" in2="blur-34"/>
      <feComposite in="SourceGraphic"/>
    </filter>
    <filter id="Path_45-2" x="4512.496" y="0" width="143.189" height="178.355" filterUnits="userSpaceOnUse">
      <feOffset dy="17" input="SourceAlpha"/>
      <feGaussianBlur stdDeviation="8" result="blur-35"/>
      <feFlood flood-opacity="0.38"/>
      <feComposite operator="in" in2="blur-35"/>
      <feComposite in="SourceGraphic"/>
    </filter>
    <filter id="Path_44-2" x="3761.442" y="0" width="143.189" height="178.355" filterUnits="userSpaceOnUse">
      <feOffset dy="17" input="SourceAlpha"/>
      <feGaussianBlur stdDeviation="8" result="blur-36"/>
      <feFlood flood-opacity="0.38"/>
      <feComposite operator="in" in2="blur-36"/>
      <feComposite in="SourceGraphic"/>
    </filter>
    <filter id="Path_30-2" x="3096.724" y="0" width="143.189" height="178.355" filterUnits="userSpaceOnUse">
      <feOffset dy="17" input="SourceAlpha"/>
      <feGaussianBlur stdDeviation="8" result="blur-37"/>
      <feFlood flood-opacity="0.38"/>
      <feComposite operator="in" in2="blur-37"/>
      <feComposite in="SourceGraphic"/>
    </filter>
    <filter id="Path_60" x="2905.724" y="0" width="143.189" height="178.355" filterUnits="userSpaceOnUse">
      <feOffset dy="17" input="SourceAlpha"/>
      <feGaussianBlur stdDeviation="8" result="blur-38"/>
      <feFlood flood-opacity="0.38"/>
      <feComposite operator="in" in2="blur-38"/>
      <feComposite in="SourceGraphic"/>
    </filter>
    <filter id="Path_35-2" x="3475.877" y="0" width="143.189" height="178.355" filterUnits="userSpaceOnUse">
      <feOffset dy="17" input="SourceAlpha"/>
      <feGaussianBlur stdDeviation="8" result="blur-39"/>
      <feFlood flood-opacity="0.38"/>
      <feComposite operator="in" in2="blur-39"/>
      <feComposite in="SourceGraphic"/>
    </filter>
    <filter id="Path_39-2" x="4231.366" y="0" width="143.189" height="178.355" filterUnits="userSpaceOnUse">
      <feOffset dy="17" input="SourceAlpha"/>
      <feGaussianBlur stdDeviation="8" result="blur-40"/>
      <feFlood flood-opacity="0.38"/>
      <feComposite operator="in" in2="blur-40"/>
      <feComposite in="SourceGraphic"/>
    </filter>
    <filter id="Path_46-2" x="4607.858" y="0" width="143.189" height="178.355" filterUnits="userSpaceOnUse">
      <feOffset dy="17" input="SourceAlpha"/>
      <feGaussianBlur stdDeviation="8" result="blur-41"/>
      <feFlood flood-opacity="0.38"/>
      <feComposite operator="in" in2="blur-41"/>
      <feComposite in="SourceGraphic"/>
    </filter>
    <filter id="Path_43-2" x="3856.804" y="0" width="143.189" height="178.355" filterUnits="userSpaceOnUse">
      <feOffset dy="17" input="SourceAlpha"/>
      <feGaussianBlur stdDeviation="8" result="blur-42"/>
      <feFlood flood-opacity="0.38"/>
      <feComposite operator="in" in2="blur-42"/>
      <feComposite in="SourceGraphic"/>
    </filter>
    <filter id="Path_31-2" x="3189.791" y="0" width="143.189" height="178.355" filterUnits="userSpaceOnUse">
      <feOffset dy="17" input="SourceAlpha"/>
      <feGaussianBlur stdDeviation="8" result="blur-43"/>
      <feFlood flood-opacity="0.38"/>
      <feComposite operator="in" in2="blur-43"/>
      <feComposite in="SourceGraphic"/>
    </filter>
    <filter id="Path_34-2" x="3571.239" y="0" width="143.189" height="178.355" filterUnits="userSpaceOnUse">
      <feOffset dy="17" input="SourceAlpha"/>
      <feGaussianBlur stdDeviation="8" result="blur-44"/>
      <feFlood flood-opacity="0.38"/>
      <feComposite operator="in" in2="blur-44"/>
      <feComposite in="SourceGraphic"/>
    </filter>
    <filter id="Path_42-2" x="3952.167" y="0" width="143.189" height="178.355" filterUnits="userSpaceOnUse">
      <feOffset dy="17" input="SourceAlpha"/>
      <feGaussianBlur stdDeviation="8" result="blur-45"/>
      <feFlood flood-opacity="0.38"/>
      <feComposite operator="in" in2="blur-45"/>
      <feComposite in="SourceGraphic"/>
    </filter>
    <filter id="Path_32-2" x="3285.153" y="0" width="143.189" height="178.355" filterUnits="userSpaceOnUse">
      <feOffset dy="17" input="SourceAlpha"/>
      <feGaussianBlur stdDeviation="8" result="blur-46"/>
      <feFlood flood-opacity="0.38"/>
      <feComposite operator="in" in2="blur-46"/>
      <feComposite in="SourceGraphic"/>
    </filter>
    <filter id="Path_33-2" x="3666.601" y="0" width="143.189" height="178.355" filterUnits="userSpaceOnUse">
      <feOffset dy="17" input="SourceAlpha"/>
      <feGaussianBlur stdDeviation="8" result="blur-47"/>
      <feFlood flood-opacity="0.38"/>
      <feComposite operator="in" in2="blur-47"/>
      <feComposite in="SourceGraphic"/>
    </filter>
    <filter id="Path_41-2" x="4040.642" y="0" width="143.189" height="178.355" filterUnits="userSpaceOnUse">
      <feOffset dy="17" input="SourceAlpha"/>
      <feGaussianBlur stdDeviation="8" result="blur-48"/>
      <feFlood flood-opacity="0.38"/>
      <feComposite operator="in" in2="blur-48"/>
      <feComposite in="SourceGraphic"/>
    </filter>
    <filter id="Path_38-2" x="4326.728" y="0" width="143.189" height="178.355" filterUnits="userSpaceOnUse">
      <feOffset dy="17" input="SourceAlpha"/>
      <feGaussianBlur stdDeviation="8" result="blur-49"/>
      <feFlood flood-opacity="0.38"/>
      <feComposite operator="in" in2="blur-49"/>
      <feComposite in="SourceGraphic"/>
    </filter>
    <filter id="Path_47-2" x="4703.22" y="0" width="143.189" height="178.355" filterUnits="userSpaceOnUse">
      <feOffset dy="17" input="SourceAlpha"/>
      <feGaussianBlur stdDeviation="8" result="blur-50"/>
      <feFlood flood-opacity="0.38"/>
      <feComposite operator="in" in2="blur-50"/>
      <feComposite in="SourceGraphic"/>
    </filter>
    <filter id="Path_49-2" x="4889.171" y="0" width="143.189" height="178.355" filterUnits="userSpaceOnUse">
      <feOffset dy="17" input="SourceAlpha"/>
      <feGaussianBlur stdDeviation="8" result="blur-51"/>
      <feFlood flood-opacity="0.38"/>
      <feComposite operator="in" in2="blur-51"/>
      <feComposite in="SourceGraphic"/>
    </filter>
    <filter id="Path_51-2" x="5072.171" y="0" width="143.189" height="178.355" filterUnits="userSpaceOnUse">
      <feOffset dy="17" input="SourceAlpha"/>
      <feGaussianBlur stdDeviation="8" result="blur-52"/>
      <feFlood flood-opacity="0.38"/>
      <feComposite operator="in" in2="blur-52"/>
      <feComposite in="SourceGraphic"/>
    </filter>
    <filter id="Path_52-2" x="5258.171" y="0" width="143.189" height="178.355" filterUnits="userSpaceOnUse">
      <feOffset dy="17" input="SourceAlpha"/>
      <feGaussianBlur stdDeviation="8" result="blur-53"/>
      <feFlood flood-opacity="0.38"/>
      <feComposite operator="in" in2="blur-53"/>
      <feComposite in="SourceGraphic"/>
    </filter>
    <filter id="Path_54-2" x="5440.171" y="0" width="143.189" height="178.355" filterUnits="userSpaceOnUse">
      <feOffset dy="17" input="SourceAlpha"/>
      <feGaussianBlur stdDeviation="8" result="blur-54"/>
      <feFlood flood-opacity="0.38"/>
      <feComposite operator="in" in2="blur-54"/>
      <feComposite in="SourceGraphic"/>
    </filter>
    <filter id="Path_57-2" x="5626.171" y="0" width="143.189" height="178.355" filterUnits="userSpaceOnUse">
      <feOffset dy="17" input="SourceAlpha"/>
      <feGaussianBlur stdDeviation="8" result="blur-55"/>
      <feFlood flood-opacity="0.38"/>
      <feComposite operator="in" in2="blur-55"/>
      <feComposite in="SourceGraphic"/>
    </filter>
    <filter id="Path_59-2" x="5812.171" y="0" width="143.189" height="178.355" filterUnits="userSpaceOnUse">
      <feOffset dy="17" input="SourceAlpha"/>
      <feGaussianBlur stdDeviation="8" result="blur-56"/>
      <feFlood flood-opacity="0.38"/>
      <feComposite operator="in" in2="blur-56"/>
      <feComposite in="SourceGraphic"/>
    </filter>
    <filter id="Path_37-2" x="4422.09" y="0" width="143.189" height="178.355" filterUnits="userSpaceOnUse">
      <feOffset dy="17" input="SourceAlpha"/>
      <feGaussianBlur stdDeviation="8" result="blur-57"/>
      <feFlood flood-opacity="0.38"/>
      <feComposite operator="in" in2="blur-57"/>
      <feComposite in="SourceGraphic"/>
    </filter>
    <filter id="Path_48-2" x="4798.582" y="0" width="143.189" height="178.355" filterUnits="userSpaceOnUse">
      <feOffset dy="17" input="SourceAlpha"/>
      <feGaussianBlur stdDeviation="8" result="blur-58"/>
      <feFlood flood-opacity="0.38"/>
      <feComposite operator="in" in2="blur-58"/>
      <feComposite in="SourceGraphic"/>
    </filter>
    <filter id="Path_50-2" x="4981.582" y="0" width="143.189" height="178.355" filterUnits="userSpaceOnUse">
      <feOffset dy="17" input="SourceAlpha"/>
      <feGaussianBlur stdDeviation="8" result="blur-59"/>
      <feFlood flood-opacity="0.38"/>
      <feComposite operator="in" in2="blur-59"/>
      <feComposite in="SourceGraphic"/>
    </filter>
    <filter id="Path_53-2" x="5167.582" y="0" width="143.189" height="178.355" filterUnits="userSpaceOnUse">
      <feOffset dy="17" input="SourceAlpha"/>
      <feGaussianBlur stdDeviation="8" result="blur-60"/>
      <feFlood flood-opacity="0.38"/>
      <feComposite operator="in" in2="blur-60"/>
      <feComposite in="SourceGraphic"/>
    </filter>
    <filter id="Path_55-2" x="5349.582" y="0" width="143.189" height="178.355" filterUnits="userSpaceOnUse">
      <feOffset dy="17" input="SourceAlpha"/>
      <feGaussianBlur stdDeviation="8" result="blur-61"/>
      <feFlood flood-opacity="0.38"/>
      <feComposite operator="in" in2="blur-61"/>
      <feComposite in="SourceGraphic"/>
    </filter>
    <filter id="Path_56-2" x="5535.582" y="0" width="143.189" height="178.355" filterUnits="userSpaceOnUse">
      <feOffset dy="17" input="SourceAlpha"/>
      <feGaussianBlur stdDeviation="8" result="blur-62"/>
      <feFlood flood-opacity="0.38"/>
      <feComposite operator="in" in2="blur-62"/>
      <feComposite in="SourceGraphic"/>
    </filter>
    <filter id="Path_58-2" x="5721.582" y="0" width="143.189" height="178.355" filterUnits="userSpaceOnUse">
      <feOffset dy="17" input="SourceAlpha"/>
      <feGaussianBlur stdDeviation="8" result="blur-63"/>
      <feFlood flood-opacity="0.38"/>
      <feComposite operator="in" in2="blur-63"/>
      <feComposite in="SourceGraphic"/>
    </filter>
    <filter id="Path_93" x="5907.582" y="0" width="143.189" height="178.355" filterUnits="userSpaceOnUse">
      <feOffset dy="17" input="SourceAlpha"/>
      <feGaussianBlur stdDeviation="8" result="blur-64"/>
      <feFlood flood-opacity="0.38"/>
      <feComposite operator="in" in2="blur-64"/>
      <feComposite in="SourceGraphic"/>
    </filter>
  </defs>
  <g id="Component_8_1" data-name="Component 8 – 1" transform="translate(24 7)">
    <g id="Component_6_1" data-name="Component 6 – 1">
      <g transform="matrix(1, 0, 0, 1, -24, -7)" filter="url(#Path_29)">
        <path id="Path_29-3" data-name="Path 29" d="M0,0H95.189V114.183s-23.783,16.172-47.58,16.172S0,114.183,0,114.183Z" transform="translate(24 7)" fill="#ec1b5b"/>
      </g>
      <g transform="matrix(1, 0, 0, 1, -24, -7)" filter="url(#Path_36)">
        <path id="Path_36-3" data-name="Path 36" d="M0,0H95.189V114.183s-23.783,16.172-47.58,16.172S0,114.183,0,114.183Z" transform="translate(403.15 7)" fill="#ec1b5b"/>
      </g>
      <g transform="matrix(1, 0, 0, 1, -24, -7)" filter="url(#Path_40)">
        <path id="Path_40-3" data-name="Path 40" d="M0,0H95.189V114.183s-23.783,16.172-47.58,16.172S0,114.183,0,114.183Z" transform="translate(1158.64 7)" fill="#ec1b5b"/>
      </g>
      <g transform="matrix(1, 0, 0, 1, -24, -7)" filter="url(#Path_45)">
        <path id="Path_45-3" data-name="Path 45" d="M0,0H95.189V114.183s-23.783,16.172-47.58,16.172S0,114.183,0,114.183Z" transform="translate(1535.13 7)" fill="#ec1b5b"/>
      </g>
      <g transform="matrix(1, 0, 0, 1, -24, -7)" filter="url(#Path_44)">
        <path id="Path_44-3" data-name="Path 44" d="M0,0H95.189V114.183s-23.783,16.172-47.58,16.172S0,114.183,0,114.183Z" transform="translate(784.08 7)" fill="#ec1b5b"/>
      </g>
      <g transform="matrix(1, 0, 0, 1, -24, -7)" filter="url(#Path_30)">
        <path id="Path_30-3" data-name="Path 30" d="M0,0H95.189V114.183s-23.783,16.172-47.58,16.172S0,114.183,0,114.183Z" transform="translate(119.36 7)" fill="#603813"/>
      </g>
      <g transform="matrix(1, 0, 0, 1, -24, -7)" filter="url(#Path_35)">
        <path id="Path_35-3" data-name="Path 35" d="M0,0H95.189V114.183s-23.783,16.172-47.58,16.172S0,114.183,0,114.183Z" transform="translate(498.51 7)" fill="#603813"/>
      </g>
      <g transform="matrix(1, 0, 0, 1, -24, -7)" filter="url(#Path_39)">
        <path id="Path_39-3" data-name="Path 39" d="M0,0H95.189V114.183s-23.783,16.172-47.58,16.172S0,114.183,0,114.183Z" transform="translate(1254 7)" fill="#603813"/>
      </g>
      <g transform="matrix(1, 0, 0, 1, -24, -7)" filter="url(#Path_46)">
        <path id="Path_46-3" data-name="Path 46" d="M0,0H95.189V114.183s-23.783,16.172-47.58,16.172S0,114.183,0,114.183Z" transform="translate(1630.5 7)" fill="#603813"/>
      </g>
      <g transform="matrix(1, 0, 0, 1, -24, -7)" filter="url(#Path_43)">
        <path id="Path_43-3" data-name="Path 43" d="M0,0H95.189V114.183s-23.783,16.172-47.58,16.172S0,114.183,0,114.183Z" transform="translate(879.44 7)" fill="#603813"/>
      </g>
      <g transform="matrix(1, 0, 0, 1, -24, -7)" filter="url(#Path_31)">
        <path id="Path_31-3" data-name="Path 31" d="M0,0H95.189V114.183s-23.783,16.172-47.58,16.172S0,114.183,0,114.183Z" transform="translate(212.43 7)" fill="#ec1b5b"/>
      </g>
      <g transform="matrix(1, 0, 0, 1, -24, -7)" filter="url(#Path_34)">
        <path id="Path_34-3" data-name="Path 34" d="M0,0H95.189V114.183s-23.783,16.172-47.58,16.172S0,114.183,0,114.183Z" transform="translate(593.88 7)" fill="#ec1b5b"/>
      </g>
      <g transform="matrix(1, 0, 0, 1, -24, -7)" filter="url(#Path_42)">
        <path id="Path_42-3" data-name="Path 42" d="M0,0H95.189V114.183s-23.783,16.172-47.58,16.172S0,114.183,0,114.183Z" transform="translate(974.8 7)" fill="#ec1b5b"/>
      </g>
      <g transform="matrix(1, 0, 0, 1, -24, -7)" filter="url(#Path_32)">
        <path id="Path_32-3" data-name="Path 32" d="M0,0H95.189V114.183s-23.783,16.172-47.58,16.172S0,114.183,0,114.183Z" transform="translate(307.79 7)" fill="#603813"/>
      </g>
      <g transform="matrix(1, 0, 0, 1, -24, -7)" filter="url(#Path_33)">
        <path id="Path_33-3" data-name="Path 33" d="M0,0H95.189V114.183s-23.783,16.172-47.58,16.172S0,114.183,0,114.183Z" transform="translate(689.24 7)" fill="#603813"/>
      </g>
      <g transform="matrix(1, 0, 0, 1, -24, -7)" filter="url(#Path_41)">
        <path id="Path_41-3" data-name="Path 41" d="M0,0H95.189V114.183s-23.783,16.172-47.58,16.172S0,114.183,0,114.183Z" transform="translate(1063.28 7)" fill="#603813"/>
      </g>
      <g transform="matrix(1, 0, 0, 1, -24, -7)" filter="url(#Path_38)">
        <path id="Path_38-3" data-name="Path 38" d="M0,0H95.189V114.183s-23.783,16.172-47.58,16.172S0,114.183,0,114.183Z" transform="translate(1349.37 7)" fill="#ec1b5b"/>
      </g>
      <g transform="matrix(1, 0, 0, 1, -24, -7)" filter="url(#Path_47)">
        <path id="Path_47-3" data-name="Path 47" d="M0,0H95.189V114.183s-23.783,16.172-47.58,16.172S0,114.183,0,114.183Z" transform="translate(1725.86 7)" fill="#ec1b5b"/>
      </g>
      <g transform="matrix(1, 0, 0, 1, -24, -7)" filter="url(#Path_49)">
        <path id="Path_49-3" data-name="Path 49" d="M0,0H95.189V114.183s-23.783,16.172-47.58,16.172S0,114.183,0,114.183Z" transform="translate(1911.81 7)" fill="#ec1b5b"/>
      </g>
      <g transform="matrix(1, 0, 0, 1, -24, -7)" filter="url(#Path_51)">
        <path id="Path_51-3" data-name="Path 51" d="M0,0H95.189V114.183s-23.783,16.172-47.58,16.172S0,114.183,0,114.183Z" transform="translate(2094.81 7)" fill="#ec1b5b"/>
      </g>
      <g transform="matrix(1, 0, 0, 1, -24, -7)" filter="url(#Path_52)">
        <path id="Path_52-3" data-name="Path 52" d="M0,0H95.189V114.183s-23.783,16.172-47.58,16.172S0,114.183,0,114.183Z" transform="translate(2280.81 7)" fill="#ec1b5b"/>
      </g>
      <g transform="matrix(1, 0, 0, 1, -24, -7)" filter="url(#Path_54)">
        <path id="Path_54-3" data-name="Path 54" d="M0,0H95.189V114.183s-23.783,16.172-47.58,16.172S0,114.183,0,114.183Z" transform="translate(2462.81 7)" fill="#ec1b5b"/>
      </g>
      <g transform="matrix(1, 0, 0, 1, -24, -7)" filter="url(#Path_57)">
        <path id="Path_57-3" data-name="Path 57" d="M0,0H95.189V114.183s-23.783,16.172-47.58,16.172S0,114.183,0,114.183Z" transform="translate(2648.81 7)" fill="#ec1b5b"/>
      </g>
      <g transform="matrix(1, 0, 0, 1, -24, -7)" filter="url(#Path_59)">
        <path id="Path_59-3" data-name="Path 59" d="M0,0H95.189V114.183s-23.783,16.172-47.58,16.172S0,114.183,0,114.183Z" transform="translate(2834.81 7)" fill="#ec1b5b"/>
      </g>
      <g transform="matrix(1, 0, 0, 1, -24, -7)" filter="url(#Path_37)">
        <path id="Path_37-3" data-name="Path 37" d="M0,0H95.189V114.183s-23.783,16.172-47.58,16.172S0,114.183,0,114.183Z" transform="translate(1444.73 7)" fill="#603813"/>
      </g>
      <g transform="matrix(1, 0, 0, 1, -24, -7)" filter="url(#Path_48)">
        <path id="Path_48-3" data-name="Path 48" d="M0,0H95.189V114.183s-23.783,16.172-47.58,16.172S0,114.183,0,114.183Z" transform="translate(1821.22 7)" fill="#603813"/>
      </g>
      <g transform="matrix(1, 0, 0, 1, -24, -7)" filter="url(#Path_50)">
        <path id="Path_50-3" data-name="Path 50" d="M0,0H95.189V114.183s-23.783,16.172-47.58,16.172S0,114.183,0,114.183Z" transform="translate(2004.22 7)" fill="#603813"/>
      </g>
      <g transform="matrix(1, 0, 0, 1, -24, -7)" filter="url(#Path_53)">
        <path id="Path_53-3" data-name="Path 53" d="M0,0H95.189V114.183s-23.783,16.172-47.58,16.172S0,114.183,0,114.183Z" transform="translate(2190.22 7)" fill="#603813"/>
      </g>
      <g transform="matrix(1, 0, 0, 1, -24, -7)" filter="url(#Path_55)">
        <path id="Path_55-3" data-name="Path 55" d="M0,0H95.189V114.183s-23.783,16.172-47.58,16.172S0,114.183,0,114.183Z" transform="translate(2372.22 7)" fill="#603813"/>
      </g>
      <g transform="matrix(1, 0, 0, 1, -24, -7)" filter="url(#Path_56)">
        <path id="Path_56-3" data-name="Path 56" d="M0,0H95.189V114.183s-23.783,16.172-47.58,16.172S0,114.183,0,114.183Z" transform="translate(2558.22 7)" fill="#603813"/>
      </g>
      <g transform="matrix(1, 0, 0, 1, -24, -7)" filter="url(#Path_58)">
        <path id="Path_58-3" data-name="Path 58" d="M0,0H95.189V114.183s-23.783,16.172-47.58,16.172S0,114.183,0,114.183Z" transform="translate(2744.22 7)" fill="#603813"/>
      </g>
    </g>
    <g transform="matrix(1, 0, 0, 1, -24, -7)" filter="url(#Path_29-2)">
      <path id="Path_29-4" data-name="Path 29" d="M0,0H95.189V114.183s-23.783,16.172-47.58,16.172S0,114.183,0,114.183Z" transform="translate(3025.36 7)" fill="#ec1b5b"/>
    </g>
    <g transform="matrix(1, 0, 0, 1, -24, -7)" filter="url(#Path_36-2)">
      <path id="Path_36-4" data-name="Path 36" d="M0,0H95.189V114.183s-23.783,16.172-47.58,16.172S0,114.183,0,114.183Z" transform="translate(3404.51 7)" fill="#ec1b5b"/>
    </g>
    <g transform="matrix(1, 0, 0, 1, -24, -7)" filter="url(#Path_40-2)">
      <path id="Path_40-4" data-name="Path 40" d="M0,0H95.189V114.183s-23.783,16.172-47.58,16.172S0,114.183,0,114.183Z" transform="translate(4160 7)" fill="#ec1b5b"/>
    </g>
    <g transform="matrix(1, 0, 0, 1, -24, -7)" filter="url(#Path_45-2)">
      <path id="Path_45-4" data-name="Path 45" d="M0,0H95.189V114.183s-23.783,16.172-47.58,16.172S0,114.183,0,114.183Z" transform="translate(4536.5 7)" fill="#ec1b5b"/>
    </g>
    <g transform="matrix(1, 0, 0, 1, -24, -7)" filter="url(#Path_44-2)">
      <path id="Path_44-4" data-name="Path 44" d="M0,0H95.189V114.183s-23.783,16.172-47.58,16.172S0,114.183,0,114.183Z" transform="translate(3785.44 7)" fill="#ec1b5b"/>
    </g>
    <g transform="matrix(1, 0, 0, 1, -24, -7)" filter="url(#Path_30-2)">
      <path id="Path_30-4" data-name="Path 30" d="M0,0H95.189V114.183s-23.783,16.172-47.58,16.172S0,114.183,0,114.183Z" transform="translate(3120.72 7)" fill="#603813"/>
    </g>
    <g transform="matrix(1, 0, 0, 1, -24, -7)" filter="url(#Path_60)">
      <path id="Path_60-2" data-name="Path 60" d="M0,0H95.189V114.183s-23.783,16.172-47.58,16.172S0,114.183,0,114.183Z" transform="translate(2929.72 7)" fill="#603813"/>
    </g>
    <g transform="matrix(1, 0, 0, 1, -24, -7)" filter="url(#Path_35-2)">
      <path id="Path_35-4" data-name="Path 35" d="M0,0H95.189V114.183s-23.783,16.172-47.58,16.172S0,114.183,0,114.183Z" transform="translate(3499.88 7)" fill="#603813"/>
    </g>
    <g transform="matrix(1, 0, 0, 1, -24, -7)" filter="url(#Path_39-2)">
      <path id="Path_39-4" data-name="Path 39" d="M0,0H95.189V114.183s-23.783,16.172-47.58,16.172S0,114.183,0,114.183Z" transform="translate(4255.37 7)" fill="#603813"/>
    </g>
    <g transform="matrix(1, 0, 0, 1, -24, -7)" filter="url(#Path_46-2)">
      <path id="Path_46-4" data-name="Path 46" d="M0,0H95.189V114.183s-23.783,16.172-47.58,16.172S0,114.183,0,114.183Z" transform="translate(4631.86 7)" fill="#603813"/>
    </g>
    <g transform="matrix(1, 0, 0, 1, -24, -7)" filter="url(#Path_43-2)">
      <path id="Path_43-4" data-name="Path 43" d="M0,0H95.189V114.183s-23.783,16.172-47.58,16.172S0,114.183,0,114.183Z" transform="translate(3880.8 7)" fill="#603813"/>
    </g>
    <g transform="matrix(1, 0, 0, 1, -24, -7)" filter="url(#Path_31-2)">
      <path id="Path_31-4" data-name="Path 31" d="M0,0H95.189V114.183s-23.783,16.172-47.58,16.172S0,114.183,0,114.183Z" transform="translate(3213.79 7)" fill="#ec1b5b"/>
    </g>
    <g transform="matrix(1, 0, 0, 1, -24, -7)" filter="url(#Path_34-2)">
      <path id="Path_34-4" data-name="Path 34" d="M0,0H95.189V114.183s-23.783,16.172-47.58,16.172S0,114.183,0,114.183Z" transform="translate(3595.24 7)" fill="#ec1b5b"/>
    </g>
    <g transform="matrix(1, 0, 0, 1, -24, -7)" filter="url(#Path_42-2)">
      <path id="Path_42-4" data-name="Path 42" d="M0,0H95.189V114.183s-23.783,16.172-47.58,16.172S0,114.183,0,114.183Z" transform="translate(3976.17 7)" fill="#ec1b5b"/>
    </g>
    <g transform="matrix(1, 0, 0, 1, -24, -7)" filter="url(#Path_32-2)">
      <path id="Path_32-4" data-name="Path 32" d="M0,0H95.189V114.183s-23.783,16.172-47.58,16.172S0,114.183,0,114.183Z" transform="translate(3309.15 7)" fill="#603813"/>
    </g>
    <g transform="matrix(1, 0, 0, 1, -24, -7)" filter="url(#Path_33-2)">
      <path id="Path_33-4" data-name="Path 33" d="M0,0H95.189V114.183s-23.783,16.172-47.58,16.172S0,114.183,0,114.183Z" transform="translate(3690.6 7)" fill="#603813"/>
    </g>
    <g transform="matrix(1, 0, 0, 1, -24, -7)" filter="url(#Path_41-2)">
      <path id="Path_41-4" data-name="Path 41" d="M0,0H95.189V114.183s-23.783,16.172-47.58,16.172S0,114.183,0,114.183Z" transform="translate(4064.64 7)" fill="#603813"/>
    </g>
    <g transform="matrix(1, 0, 0, 1, -24, -7)" filter="url(#Path_38-2)">
      <path id="Path_38-4" data-name="Path 38" d="M0,0H95.189V114.183s-23.783,16.172-47.58,16.172S0,114.183,0,114.183Z" transform="translate(4350.73 7)" fill="#ec1b5b"/>
    </g>
    <g transform="matrix(1, 0, 0, 1, -24, -7)" filter="url(#Path_47-2)">
      <path id="Path_47-4" data-name="Path 47" d="M0,0H95.189V114.183s-23.783,16.172-47.58,16.172S0,114.183,0,114.183Z" transform="translate(4727.22 7)" fill="#ec1b5b"/>
    </g>
    <g transform="matrix(1, 0, 0, 1, -24, -7)" filter="url(#Path_49-2)">
      <path id="Path_49-4" data-name="Path 49" d="M0,0H95.189V114.183s-23.783,16.172-47.58,16.172S0,114.183,0,114.183Z" transform="translate(4913.17 7)" fill="#ec1b5b"/>
    </g>
    <g transform="matrix(1, 0, 0, 1, -24, -7)" filter="url(#Path_51-2)">
      <path id="Path_51-4" data-name="Path 51" d="M0,0H95.189V114.183s-23.783,16.172-47.58,16.172S0,114.183,0,114.183Z" transform="translate(5096.17 7)" fill="#ec1b5b"/>
    </g>
    <g transform="matrix(1, 0, 0, 1, -24, -7)" filter="url(#Path_52-2)">
      <path id="Path_52-4" data-name="Path 52" d="M0,0H95.189V114.183s-23.783,16.172-47.58,16.172S0,114.183,0,114.183Z" transform="translate(5282.17 7)" fill="#ec1b5b"/>
    </g>
    <g transform="matrix(1, 0, 0, 1, -24, -7)" filter="url(#Path_54-2)">
      <path id="Path_54-4" data-name="Path 54" d="M0,0H95.189V114.183s-23.783,16.172-47.58,16.172S0,114.183,0,114.183Z" transform="translate(5464.17 7)" fill="#ec1b5b"/>
    </g>
    <g transform="matrix(1, 0, 0, 1, -24, -7)" filter="url(#Path_57-2)">
      <path id="Path_57-4" data-name="Path 57" d="M0,0H95.189V114.183s-23.783,16.172-47.58,16.172S0,114.183,0,114.183Z" transform="translate(5650.17 7)" fill="#ec1b5b"/>
    </g>
    <g transform="matrix(1, 0, 0, 1, -24, -7)" filter="url(#Path_59-2)">
      <path id="Path_59-4" data-name="Path 59" d="M0,0H95.189V114.183s-23.783,16.172-47.58,16.172S0,114.183,0,114.183Z" transform="translate(5836.17 7)" fill="#ec1b5b"/>
    </g>
    <g transform="matrix(1, 0, 0, 1, -24, -7)" filter="url(#Path_37-2)">
      <path id="Path_37-4" data-name="Path 37" d="M0,0H95.189V114.183s-23.783,16.172-47.58,16.172S0,114.183,0,114.183Z" transform="translate(4446.09 7)" fill="#603813"/>
    </g>
    <g transform="matrix(1, 0, 0, 1, -24, -7)" filter="url(#Path_48-2)">
      <path id="Path_48-4" data-name="Path 48" d="M0,0H95.189V114.183s-23.783,16.172-47.58,16.172S0,114.183,0,114.183Z" transform="translate(4822.58 7)" fill="#603813"/>
    </g>
    <g transform="matrix(1, 0, 0, 1, -24, -7)" filter="url(#Path_50-2)">
      <path id="Path_50-4" data-name="Path 50" d="M0,0H95.189V114.183s-23.783,16.172-47.58,16.172S0,114.183,0,114.183Z" transform="translate(5005.58 7)" fill="#603813"/>
    </g>
    <g transform="matrix(1, 0, 0, 1, -24, -7)" filter="url(#Path_53-2)">
      <path id="Path_53-4" data-name="Path 53" d="M0,0H95.189V114.183s-23.783,16.172-47.58,16.172S0,114.183,0,114.183Z" transform="translate(5191.58 7)" fill="#603813"/>
    </g>
    <g transform="matrix(1, 0, 0, 1, -24, -7)" filter="url(#Path_55-2)">
      <path id="Path_55-4" data-name="Path 55" d="M0,0H95.189V114.183s-23.783,16.172-47.58,16.172S0,114.183,0,114.183Z" transform="translate(5373.58 7)" fill="#603813"/>
    </g>
    <g transform="matrix(1, 0, 0, 1, -24, -7)" filter="url(#Path_56-2)">
      <path id="Path_56-4" data-name="Path 56" d="M0,0H95.189V114.183s-23.783,16.172-47.58,16.172S0,114.183,0,114.183Z" transform="translate(5559.58 7)" fill="#603813"/>
    </g>
    <g transform="matrix(1, 0, 0, 1, -24, -7)" filter="url(#Path_58-2)">
      <path id="Path_58-4" data-name="Path 58" d="M0,0H95.189V114.183s-23.783,16.172-47.58,16.172S0,114.183,0,114.183Z" transform="translate(5745.58 7)" fill="#603813"/>
    </g>
    <g transform="matrix(1, 0, 0, 1, -24, -7)" filter="url(#Path_93)">
      <path id="Path_93-2" data-name="Path 93" d="M0,0H95.189V114.183s-23.783,16.172-47.58,16.172S0,114.183,0,114.183Z" transform="translate(5931.58 7)" fill="#603813"/>
    </g>
  </g>
</svg>
