<svg id="Component_3_1" data-name="Component 3 – 1" xmlns="http://www.w3.org/2000/svg" width="4385" height="1586.543" viewBox="0 0 4385 1586.543">
  <defs>
    <style>
      .cls-1 {
        fill: #ec1b5b;
      }
    </style>
  </defs>
  <g id="Component_2_1" data-name="Component 2 – 1" transform="translate(0 735)">
    <g id="Component_1_1" data-name="Component 1 – 1">
      <path id="Path_3" data-name="Path 3" class="cls-1" d="M0,0S45.82,68.859,94.913,68.859,144.824,0,196.371,0,248.737,68.859,301.1,68.859,353.468,0,405.834,0,458.2,68.859,510.566,68.859,562.931,0,615.3,0s52.366,68.859,104.731,68.859S772.394,0,824.76,0s52.366,68.859,104.731,68.859S981.857,0,1034.223,0s52.366,68.859,104.731,68.859S1191.32,0,1243.686,0s52.366,68.859,104.731,68.859S1400.783,0,1453.149,0s52.366,68.859,104.731,68.859S1610.246,0,1662.611,0s52.366,68.859,104.732,68.859S1819.708,0,1872.074,0s52.366,68.859,104.731,68.859S2029.172,0,2081.537,0s52.366,68.859,104.732,68.859S2291,0,2291,0V344.294H0Z" transform="translate(2291 851.543) rotate(180)"/>
      <rect id="Rectangle_1" data-name="Rectangle 1" class="cls-1" width="2291" height="517" transform="translate(2291 517) rotate(180)"/>
    </g>
    <g id="Component_1_2" data-name="Component 1 – 2" transform="translate(2094)">
      <path id="Path_3-2" data-name="Path 3" class="cls-1" d="M0,0S45.82,68.859,94.913,68.859,144.824,0,196.371,0,248.737,68.859,301.1,68.859,353.468,0,405.834,0,458.2,68.859,510.566,68.859,562.931,0,615.3,0s52.366,68.859,104.731,68.859S772.394,0,824.76,0s52.366,68.859,104.731,68.859S981.857,0,1034.223,0s52.366,68.859,104.731,68.859S1191.32,0,1243.686,0s52.366,68.859,104.731,68.859S1400.783,0,1453.149,0s52.366,68.859,104.731,68.859S1610.246,0,1662.611,0s52.366,68.859,104.732,68.859S1819.708,0,1872.074,0s52.366,68.859,104.731,68.859S2029.172,0,2081.537,0s52.366,68.859,104.732,68.859S2291,0,2291,0V344.294H0Z" transform="translate(2291 851.543) rotate(180)"/>
      <rect id="Rectangle_1-2" data-name="Rectangle 1" class="cls-1" width="2291" height="517" transform="translate(2291 517) rotate(180)"/>
    </g>
  </g>
  <g id="Component_2_2" data-name="Component 2 – 2">
    <g id="Component_1_1-2" data-name="Component 1 – 1">
      <path id="Path_3-3" data-name="Path 3" class="cls-1" d="M0,0S45.82,68.859,94.913,68.859,144.824,0,196.371,0,248.737,68.859,301.1,68.859,353.468,0,405.834,0,458.2,68.859,510.566,68.859,562.931,0,615.3,0s52.366,68.859,104.731,68.859S772.394,0,824.76,0s52.366,68.859,104.731,68.859S981.857,0,1034.223,0s52.366,68.859,104.731,68.859S1191.32,0,1243.686,0s52.366,68.859,104.731,68.859S1400.783,0,1453.149,0s52.366,68.859,104.731,68.859S1610.246,0,1662.611,0s52.366,68.859,104.732,68.859S1819.708,0,1872.074,0s52.366,68.859,104.731,68.859S2029.172,0,2081.537,0s52.366,68.859,104.732,68.859S2291,0,2291,0V344.294H0Z" transform="translate(2291 851.543) rotate(180)"/>
      <rect id="Rectangle_1-3" data-name="Rectangle 1" class="cls-1" width="2291" height="517" transform="translate(2291 517) rotate(180)"/>
    </g>
    <g id="Component_1_2-2" data-name="Component 1 – 2" transform="translate(2094)">
      <path id="Path_3-4" data-name="Path 3" class="cls-1" d="M0,0S45.82,68.859,94.913,68.859,144.824,0,196.371,0,248.737,68.859,301.1,68.859,353.468,0,405.834,0,458.2,68.859,510.566,68.859,562.931,0,615.3,0s52.366,68.859,104.731,68.859S772.394,0,824.76,0s52.366,68.859,104.731,68.859S981.857,0,1034.223,0s52.366,68.859,104.731,68.859S1191.32,0,1243.686,0s52.366,68.859,104.731,68.859S1400.783,0,1453.149,0s52.366,68.859,104.731,68.859S1610.246,0,1662.611,0s52.366,68.859,104.732,68.859S1819.708,0,1872.074,0s52.366,68.859,104.731,68.859S2029.172,0,2081.537,0s52.366,68.859,104.732,68.859S2291,0,2291,0V344.294H0Z" transform="translate(2291 851.543) rotate(180)"/>
      <rect id="Rectangle_1-4" data-name="Rectangle 1" class="cls-1" width="2291" height="517" transform="translate(2291 517) rotate(180)"/>
    </g>
  </g>
</svg>
