<svg id="Component_1_1" data-name="Component 1 – 1" xmlns="http://www.w3.org/2000/svg" width="1920" height="851.543" viewBox="0 0 1920 851.543">
  <defs>
    <style>
      .cls-1 {
        fill: #ec1b5b;
      }
    </style>
  </defs>
  <path id="Path_3" data-name="Path 3" class="cls-1" d="M0,622.457s38.4,68.859,79.543,68.859,41.829-68.859,85.029-68.859,43.886,68.859,87.771,68.859,43.886-68.859,87.771-68.859S384,691.316,427.886,691.316s43.886-68.859,87.771-68.859,43.886,68.859,87.771,68.859,43.886-68.859,87.771-68.859,43.886,68.859,87.771,68.859,43.886-68.859,87.771-68.859,43.886,68.859,87.771,68.859,43.886-68.859,87.771-68.859,43.886,68.859,87.771,68.859,43.886-68.859,87.771-68.859,43.886,68.859,87.771,68.859,43.886-68.859,87.771-68.859,43.886,68.859,87.771,68.859,43.886-68.859,87.771-68.859,43.886,68.859,87.771,68.859,43.886-68.859,87.771-68.859,43.886,68.859,87.771,68.859S1920,622.457,1920,622.457V966.751H0Z" transform="translate(1920 1474) rotate(180)"/>
  <rect id="Rectangle_1" data-name="Rectangle 1" class="cls-1" width="1920" height="517" transform="translate(1920 517) rotate(180)"/>
</svg>
