<?xml version="1.0" encoding="iso-8859-1"?>
<!-- Generator: Adobe Illustrator 19.0.0, SVG Export Plug-In . SVG Version: 6.00 Build 0)  -->
<svg version="1.1" id="Capa_1" xmlns="http://www.w3.org/2000/svg" xmlns:xlink="http://www.w3.org/1999/xlink" x="0px" y="0px"
	 viewBox="0 0 512 512" style="enable-background:new 0 0 512 512;" xml:space="preserve">
<g>
	<g>
		<path d="M359.511,36C320.602,36,284.228,50.819,256,77.95C227.772,50.819,191.398,36,152.489,36C68.406,36,0,106.848,0,193.933
			c0,33.558,13.568,69.377,40.328,106.463c20.902,28.968,49.939,58.888,86.304,88.926c61.529,50.826,122.029,84.065,124.575,85.455
			C252.7,475.592,254.351,476,256,476s3.3-0.408,4.793-1.224c2.546-1.39,63.046-34.629,124.575-85.455
			c36.364-30.039,65.401-59.958,86.304-88.926C498.432,263.31,512,227.49,512,193.933C512,106.848,443.594,36,359.511,36z
			 M452.666,95.97l-77.001,77.002c-12.276-4.978-26.419-4.458-38.508,1.99c6.332-11.785,7.012-25.539,2.446-37.618l70.768-70.769
			C426.271,73.483,440.602,83.535,452.666,95.97z M279.656,214.907l-29.503,20.817c-10.522,7.426-24.971,5.816-33.602-3.748
			c-8.781-9.731-8.781-24.407,0.001-34.138c4.993-5.533,11.93-8.403,18.93-8.403c5.101,0,10.234,1.525,14.671,4.655L279.656,214.907
			z M280.024,134.549c4.865-4.391,10.967-6.586,17.068-6.586c6.101,0,12.203,2.196,17.069,6.586
			c9.563,8.63,11.175,23.076,3.747,33.602l-20.816,29.502l-20.816-29.502C268.85,157.626,270.461,143.18,280.024,134.549z
			 M276.094,261.846l20.816-29.502l20.816,29.502c7.427,10.525,5.815,24.971-3.748,33.602c-9.73,8.783-24.407,8.78-34.138,0
			C270.277,286.817,268.667,272.372,276.094,261.846z M314.346,215.09l29.502-20.817c10.525-7.427,24.972-5.815,33.603,3.748
			c8.782,9.731,8.782,24.407,0,34.138c-8.631,9.563-23.075,11.175-33.602,3.748L314.346,215.09z M20,193.933
			C20,117.876,79.435,56,152.489,56c36.702,0,70.839,15.276,96.12,43.014c1.895,2.079,4.577,3.264,7.391,3.264
			c2.814,0,5.496-1.185,7.391-3.264C288.672,71.276,322.809,56,359.511,56c10.195,0,20.123,1.208,29.663,3.488l-60.894,60.893
			c-0.24-0.226-0.473-0.458-0.719-0.68c-17.371-15.676-43.566-15.676-60.938,0c-15.647,14.122-19.358,36.961-9.659,55.142
			c-18.201-9.779-41.109-6.086-55.261,9.595c-15.676,17.37-15.675,43.567,0.001,60.937c0.251,0.278,0.515,0.539,0.771,0.809
			l-97.328,97.328C58.743,299.163,20,246.419,20,193.933z M256,454.512c-11.794-6.778-43.885-25.837-80.743-52.848l12.203-12.203
			c3.905-3.905,3.905-10.237,0-14.143c-3.906-3.905-10.236-3.905-14.143,0l-14.212,14.212
			c-12.992-10.011-26.281-20.884-39.244-32.444l99.611-99.611c5.134,1.923,10.568,2.901,16.025,2.901
			c7.301,0,14.639-1.756,21.345-5.331c-6.527,12.155-7.045,26.403-1.996,38.746l-33.194,33.194c-3.905,3.905-3.905,10.237,0,14.143
			c1.953,1.953,4.512,2.929,7.071,2.929c2.559,0,5.118-0.976,7.071-2.929l30.746-30.746c8.67,7.779,19.519,11.672,30.37,11.672
			c10.892,0,21.783-3.919,30.469-11.757c15.643-14.118,19.356-36.948,9.667-55.127c6.737,3.617,14.117,5.39,21.46,5.39
			c12.494,0,24.88-5.125,33.791-15c15.677-17.369,15.677-43.567,0-60.936l73.26-73.26C482.15,134.399,492,162.988,492,193.933
			C492,313.798,289.943,435.005,256,454.512z"/>
	</g>
</g>
<g>
	<g>
		<path d="M160.365,75.495c-5.522,0-10,4.477-10,10s4.477,10,9.999,10h0.049c5.522,0,9.976-4.477,9.976-10
			S165.887,75.495,160.365,75.495z"/>
	</g>
</g>
<g>
	<g>
		<path d="M132.171,88.905c-2.001-5.149-7.797-7.697-12.943-5.7c-34.822,13.531-61.661,43.677-71.796,80.643
			c-1.46,5.327,1.674,10.828,7.001,12.288c0.885,0.243,1.774,0.358,2.649,0.358c4.393,0,8.421-2.917,9.639-7.358
			c8.467-30.886,30.804-56.041,59.751-67.288C131.619,99.847,134.171,94.052,132.171,88.905z"/>
	</g>
</g>
<g>
	<g>
		<path d="M213.13,349.65c-1.861-1.86-4.441-2.93-7.07-2.93c-2.64,0-5.22,1.07-7.08,2.93c-1.859,1.86-2.92,4.44-2.92,7.07
			s1.061,5.21,2.92,7.07c1.86,1.86,4.44,2.93,7.08,2.93c2.63,0,5.21-1.07,7.07-2.93s2.93-4.43,2.93-7.07
			C216.06,354.09,214.991,351.51,213.13,349.65z"/>
	</g>
</g>
<g>
</g>
<g>
</g>
<g>
</g>
<g>
</g>
<g>
</g>
<g>
</g>
<g>
</g>
<g>
</g>
<g>
</g>
<g>
</g>
<g>
</g>
<g>
</g>
<g>
</g>
<g>
</g>
<g>
</g>
</svg>
