<svg xmlns="http://www.w3.org/2000/svg" xmlns:xlink="http://www.w3.org/1999/xlink" width="2653.381" height="198.918" viewBox="0 0 2653.381 198.918">
  <defs>
    <filter id="Path_29" x="0" y="0" width="172.393" height="198.918" filterUnits="userSpaceOnUse">
      <feOffset dy="17" input="SourceAlpha"/>
      <feGaussianBlur stdDeviation="8" result="blur"/>
      <feFlood flood-opacity="0.38"/>
      <feComposite operator="in" in2="blur"/>
      <feComposite in="SourceGraphic"/>
    </filter>
    <filter id="Path_36" x="498.477" y="0" width="172.393" height="198.918" filterUnits="userSpaceOnUse">
      <feOffset dy="17" input="SourceAlpha"/>
      <feGaussianBlur stdDeviation="8" result="blur-2"/>
      <feFlood flood-opacity="0.38"/>
      <feComposite operator="in" in2="blur-2"/>
      <feComposite in="SourceGraphic"/>
    </filter>
    <filter id="Path_40" x="1496.749" y="0" width="172.393" height="198.918" filterUnits="userSpaceOnUse">
      <feOffset dy="17" input="SourceAlpha"/>
      <feGaussianBlur stdDeviation="8" result="blur-3"/>
      <feFlood flood-opacity="0.38"/>
      <feComposite operator="in" in2="blur-3"/>
      <feComposite in="SourceGraphic"/>
    </filter>
    <filter id="Path_45" x="1988.749" y="0" width="172.393" height="198.918" filterUnits="userSpaceOnUse">
      <feOffset dy="17" input="SourceAlpha"/>
      <feGaussianBlur stdDeviation="8" result="blur-4"/>
      <feFlood flood-opacity="0.38"/>
      <feComposite operator="in" in2="blur-4"/>
      <feComposite in="SourceGraphic"/>
    </filter>
    <filter id="Path_44" x="998.272" y="0" width="172.394" height="198.918" filterUnits="userSpaceOnUse">
      <feOffset dy="17" input="SourceAlpha"/>
      <feGaussianBlur stdDeviation="8" result="blur-5"/>
      <feFlood flood-opacity="0.38"/>
      <feComposite operator="in" in2="blur-5"/>
      <feComposite in="SourceGraphic"/>
    </filter>
    <filter id="Path_30" x="124.619" y="0" width="172.394" height="198.918" filterUnits="userSpaceOnUse">
      <feOffset dy="17" input="SourceAlpha"/>
      <feGaussianBlur stdDeviation="8" result="blur-6"/>
      <feFlood flood-opacity="0.38"/>
      <feComposite operator="in" in2="blur-6"/>
      <feComposite in="SourceGraphic"/>
    </filter>
    <filter id="Path_35" x="623.096" y="0" width="172.393" height="198.918" filterUnits="userSpaceOnUse">
      <feOffset dy="17" input="SourceAlpha"/>
      <feGaussianBlur stdDeviation="8" result="blur-7"/>
      <feFlood flood-opacity="0.38"/>
      <feComposite operator="in" in2="blur-7"/>
      <feComposite in="SourceGraphic"/>
    </filter>
    <filter id="Path_39" x="1621.368" y="0" width="172.394" height="198.918" filterUnits="userSpaceOnUse">
      <feOffset dy="17" input="SourceAlpha"/>
      <feGaussianBlur stdDeviation="8" result="blur-8"/>
      <feFlood flood-opacity="0.38"/>
      <feComposite operator="in" in2="blur-8"/>
      <feComposite in="SourceGraphic"/>
    </filter>
    <filter id="Path_46" x="2113.368" y="0" width="172.394" height="198.918" filterUnits="userSpaceOnUse">
      <feOffset dy="17" input="SourceAlpha"/>
      <feGaussianBlur stdDeviation="8" result="blur-9"/>
      <feFlood flood-opacity="0.38"/>
      <feComposite operator="in" in2="blur-9"/>
      <feComposite in="SourceGraphic"/>
    </filter>
    <filter id="Path_43" x="1122.891" y="0" width="172.394" height="198.918" filterUnits="userSpaceOnUse">
      <feOffset dy="17" input="SourceAlpha"/>
      <feGaussianBlur stdDeviation="8" result="blur-10"/>
      <feFlood flood-opacity="0.38"/>
      <feComposite operator="in" in2="blur-10"/>
      <feComposite in="SourceGraphic"/>
    </filter>
    <filter id="Path_31" x="249.238" y="0" width="172.393" height="198.918" filterUnits="userSpaceOnUse">
      <feOffset dy="17" input="SourceAlpha"/>
      <feGaussianBlur stdDeviation="8" result="blur-11"/>
      <feFlood flood-opacity="0.38"/>
      <feComposite operator="in" in2="blur-11"/>
      <feComposite in="SourceGraphic"/>
    </filter>
    <filter id="Path_34" x="747.715" y="0" width="172.393" height="198.918" filterUnits="userSpaceOnUse">
      <feOffset dy="17" input="SourceAlpha"/>
      <feGaussianBlur stdDeviation="8" result="blur-12"/>
      <feFlood flood-opacity="0.38"/>
      <feComposite operator="in" in2="blur-12"/>
      <feComposite in="SourceGraphic"/>
    </filter>
    <filter id="Path_42" x="1247.511" y="0" width="172.393" height="198.918" filterUnits="userSpaceOnUse">
      <feOffset dy="17" input="SourceAlpha"/>
      <feGaussianBlur stdDeviation="8" result="blur-13"/>
      <feFlood flood-opacity="0.38"/>
      <feComposite operator="in" in2="blur-13"/>
      <feComposite in="SourceGraphic"/>
    </filter>
    <filter id="Path_32" x="373.858" y="0" width="172.393" height="198.918" filterUnits="userSpaceOnUse">
      <feOffset dy="17" input="SourceAlpha"/>
      <feGaussianBlur stdDeviation="8" result="blur-14"/>
      <feFlood flood-opacity="0.38"/>
      <feComposite operator="in" in2="blur-14"/>
      <feComposite in="SourceGraphic"/>
    </filter>
    <filter id="Path_33" x="872.334" y="0" width="172.393" height="198.918" filterUnits="userSpaceOnUse">
      <feOffset dy="17" input="SourceAlpha"/>
      <feGaussianBlur stdDeviation="8" result="blur-15"/>
      <feFlood flood-opacity="0.38"/>
      <feComposite operator="in" in2="blur-15"/>
      <feComposite in="SourceGraphic"/>
    </filter>
    <filter id="Path_41" x="1372.13" y="0" width="172.393" height="198.918" filterUnits="userSpaceOnUse">
      <feOffset dy="17" input="SourceAlpha"/>
      <feGaussianBlur stdDeviation="8" result="blur-16"/>
      <feFlood flood-opacity="0.38"/>
      <feComposite operator="in" in2="blur-16"/>
      <feComposite in="SourceGraphic"/>
    </filter>
    <filter id="Path_38" x="1745.987" y="0" width="172.394" height="198.918" filterUnits="userSpaceOnUse">
      <feOffset dy="17" input="SourceAlpha"/>
      <feGaussianBlur stdDeviation="8" result="blur-17"/>
      <feFlood flood-opacity="0.38"/>
      <feComposite operator="in" in2="blur-17"/>
      <feComposite in="SourceGraphic"/>
    </filter>
    <filter id="Path_47" x="2237.987" y="0" width="172.394" height="198.918" filterUnits="userSpaceOnUse">
      <feOffset dy="17" input="SourceAlpha"/>
      <feGaussianBlur stdDeviation="8" result="blur-18"/>
      <feFlood flood-opacity="0.38"/>
      <feComposite operator="in" in2="blur-18"/>
      <feComposite in="SourceGraphic"/>
    </filter>
    <filter id="Path_49" x="2480.987" y="0" width="172.394" height="198.918" filterUnits="userSpaceOnUse">
      <feOffset dy="17" input="SourceAlpha"/>
      <feGaussianBlur stdDeviation="8" result="blur-19"/>
      <feFlood flood-opacity="0.38"/>
      <feComposite operator="in" in2="blur-19"/>
      <feComposite in="SourceGraphic"/>
    </filter>
    <filter id="Path_37" x="1870.606" y="0" width="172.394" height="198.918" filterUnits="userSpaceOnUse">
      <feOffset dy="17" input="SourceAlpha"/>
      <feGaussianBlur stdDeviation="8" result="blur-20"/>
      <feFlood flood-opacity="0.38"/>
      <feComposite operator="in" in2="blur-20"/>
      <feComposite in="SourceGraphic"/>
    </filter>
    <filter id="Path_48" x="2362.606" y="0" width="172.394" height="198.918" filterUnits="userSpaceOnUse">
      <feOffset dy="17" input="SourceAlpha"/>
      <feGaussianBlur stdDeviation="8" result="blur-21"/>
      <feFlood flood-opacity="0.38"/>
      <feComposite operator="in" in2="blur-21"/>
      <feComposite in="SourceGraphic"/>
    </filter>
  </defs>
  <g id="Component_5_1" data-name="Component 5 – 1" transform="translate(24 7)">
    <g transform="matrix(1, 0, 0, 1, -24, -7)" filter="url(#Path_29)">
      <path id="Path_29-2" data-name="Path 29" d="M0,0H124.393V132.2s-31.079,18.723-62.178,18.723S0,132.2,0,132.2Z" transform="translate(24 7)" fill="#ec1b5b"/>
    </g>
    <g transform="matrix(1, 0, 0, 1, -24, -7)" filter="url(#Path_36)">
      <path id="Path_36-2" data-name="Path 36" d="M0,0H124.393V132.2s-31.079,18.723-62.178,18.723S0,132.2,0,132.2Z" transform="translate(522.48 7)" fill="#ec1b5b"/>
    </g>
    <g transform="matrix(1, 0, 0, 1, -24, -7)" filter="url(#Path_40)">
      <path id="Path_40-2" data-name="Path 40" d="M0,0H124.393V132.2s-31.079,18.723-62.178,18.723S0,132.2,0,132.2Z" transform="translate(1520.75 7)" fill="#ec1b5b"/>
    </g>
    <g transform="matrix(1, 0, 0, 1, -24, -7)" filter="url(#Path_45)">
      <path id="Path_45-2" data-name="Path 45" d="M0,0H124.393V132.2s-31.079,18.723-62.178,18.723S0,132.2,0,132.2Z" transform="translate(2012.75 7)" fill="#ec1b5b"/>
    </g>
    <g transform="matrix(1, 0, 0, 1, -24, -7)" filter="url(#Path_44)">
      <path id="Path_44-2" data-name="Path 44" d="M0,0H124.393V132.2s-31.079,18.723-62.178,18.723S0,132.2,0,132.2Z" transform="translate(1022.27 7)" fill="#ec1b5b"/>
    </g>
    <g transform="matrix(1, 0, 0, 1, -24, -7)" filter="url(#Path_30)">
      <path id="Path_30-2" data-name="Path 30" d="M0,0H124.393V132.2s-31.079,18.723-62.178,18.723S0,132.2,0,132.2Z" transform="translate(148.62 7)" fill="#603813"/>
    </g>
    <g transform="matrix(1, 0, 0, 1, -24, -7)" filter="url(#Path_35)">
      <path id="Path_35-2" data-name="Path 35" d="M0,0H124.393V132.2s-31.079,18.723-62.178,18.723S0,132.2,0,132.2Z" transform="translate(647.1 7)" fill="#603813"/>
    </g>
    <g transform="matrix(1, 0, 0, 1, -24, -7)" filter="url(#Path_39)">
      <path id="Path_39-2" data-name="Path 39" d="M0,0H124.393V132.2s-31.079,18.723-62.178,18.723S0,132.2,0,132.2Z" transform="translate(1645.37 7)" fill="#603813"/>
    </g>
    <g transform="matrix(1, 0, 0, 1, -24, -7)" filter="url(#Path_46)">
      <path id="Path_46-2" data-name="Path 46" d="M0,0H124.393V132.2s-31.079,18.723-62.178,18.723S0,132.2,0,132.2Z" transform="translate(2137.37 7)" fill="#603813"/>
    </g>
    <g transform="matrix(1, 0, 0, 1, -24, -7)" filter="url(#Path_43)">
      <path id="Path_43-2" data-name="Path 43" d="M0,0H124.393V132.2s-31.079,18.723-62.178,18.723S0,132.2,0,132.2Z" transform="translate(1146.89 7)" fill="#603813"/>
    </g>
    <g transform="matrix(1, 0, 0, 1, -24, -7)" filter="url(#Path_31)">
      <path id="Path_31-2" data-name="Path 31" d="M0,0H124.393V132.2s-31.079,18.723-62.178,18.723S0,132.2,0,132.2Z" transform="translate(273.24 7)" fill="#ec1b5b"/>
    </g>
    <g transform="matrix(1, 0, 0, 1, -24, -7)" filter="url(#Path_34)">
      <path id="Path_34-2" data-name="Path 34" d="M0,0H124.393V132.2s-31.079,18.723-62.178,18.723S0,132.2,0,132.2Z" transform="translate(771.72 7)" fill="#ec1b5b"/>
    </g>
    <g transform="matrix(1, 0, 0, 1, -24, -7)" filter="url(#Path_42)">
      <path id="Path_42-2" data-name="Path 42" d="M0,0H124.393V132.2s-31.079,18.723-62.178,18.723S0,132.2,0,132.2Z" transform="translate(1271.51 7)" fill="#ec1b5b"/>
    </g>
    <g transform="matrix(1, 0, 0, 1, -24, -7)" filter="url(#Path_32)">
      <path id="Path_32-2" data-name="Path 32" d="M0,0H124.393V132.2s-31.079,18.723-62.178,18.723S0,132.2,0,132.2Z" transform="translate(397.86 7)" fill="#603813"/>
    </g>
    <g transform="matrix(1, 0, 0, 1, -24, -7)" filter="url(#Path_33)">
      <path id="Path_33-2" data-name="Path 33" d="M0,0H124.393V132.2s-31.079,18.723-62.178,18.723S0,132.2,0,132.2Z" transform="translate(896.33 7)" fill="#603813"/>
    </g>
    <g transform="matrix(1, 0, 0, 1, -24, -7)" filter="url(#Path_41)">
      <path id="Path_41-2" data-name="Path 41" d="M0,0H124.393V132.2s-31.079,18.723-62.178,18.723S0,132.2,0,132.2Z" transform="translate(1396.13 7)" fill="#603813"/>
    </g>
    <g transform="matrix(1, 0, 0, 1, -24, -7)" filter="url(#Path_38)">
      <path id="Path_38-2" data-name="Path 38" d="M0,0H124.393V132.2s-31.079,18.723-62.178,18.723S0,132.2,0,132.2Z" transform="translate(1769.99 7)" fill="#ec1b5b"/>
    </g>
    <g transform="matrix(1, 0, 0, 1, -24, -7)" filter="url(#Path_47)">
      <path id="Path_47-2" data-name="Path 47" d="M0,0H124.393V132.2s-31.079,18.723-62.178,18.723S0,132.2,0,132.2Z" transform="translate(2261.99 7)" fill="#ec1b5b"/>
    </g>
    <g transform="matrix(1, 0, 0, 1, -24, -7)" filter="url(#Path_49)">
      <path id="Path_49-2" data-name="Path 49" d="M0,0H124.393V132.2s-31.079,18.723-62.178,18.723S0,132.2,0,132.2Z" transform="translate(2504.99 7)" fill="#ec1b5b"/>
    </g>
    <g transform="matrix(1, 0, 0, 1, -24, -7)" filter="url(#Path_37)">
      <path id="Path_37-2" data-name="Path 37" d="M0,0H124.393V132.2s-31.079,18.723-62.178,18.723S0,132.2,0,132.2Z" transform="translate(1894.61 7)" fill="#603813"/>
    </g>
    <g transform="matrix(1, 0, 0, 1, -24, -7)" filter="url(#Path_48)">
      <path id="Path_48-2" data-name="Path 48" d="M0,0H124.393V132.2s-31.079,18.723-62.178,18.723S0,132.2,0,132.2Z" transform="translate(2386.61 7)" fill="#603813"/>
    </g>
  </g>
</svg>
